<svg xmlns="http://www.w3.org/2000/svg" viewBox="0 0 1076.72 937.21"><defs><style>.cls-1{fill:#1f1f1d;}.cls-2{fill:#fff;}.cls-3{fill:#d2d2d2;}.cls-4{fill:#feffff;}.cls-5{fill:#fdfefe;}.cls-6{fill:#fefefe;}.cls-7{fill:#d1d1d1;}.cls-8{fill:#fdfdfd;}.cls-9{fill:#fbfcfc;}.cls-10{fill:#f2f5f5;}.cls-11{fill:#e0eeee;}.cls-12{fill:#c6c6c6;}.cls-13{fill:#847e7d;}.cls-14{fill:#292927;}.cls-15{fill:#292826;}.cls-16{fill:#262523;}.cls-17{fill:#252422;}.cls-18{fill:#2b2a28;}.cls-19{fill:#282725;}.cls-20{fill:#2b2826;}.cls-21{fill:#272624;}</style></defs><g id="Layer_2" data-name="Layer 2"><g id="Layer_1-2" data-name="Layer 1"><path class="cls-1" d="M135.56,282.62a198.61,198.61,0,0,1-11.1-36c-4.1-20.49-4.58-40.94,1-61.26,6.77-24.84,21.26-44.43,41.43-60,18.41-14.25,39.25-23.75,61.2-31a372,372,0,0,1,53.43-13,19.71,19.71,0,0,0,7.45-3C323.73,56,360.42,37.55,399.54,24a425.09,425.09,0,0,1,95-21.59C590.31-7.55,679.25,13.45,762,62a368.31,368.31,0,0,1,68.87,51.67c10.4,10,20.11,20.56,28.1,32.63a5.9,5.9,0,0,0,3.19,2.48,40.51,40.51,0,0,1,16.55,8.33c7.74,6.16,15.46,12.43,22.57,19.3,23.87,23,44.72,48.73,64.57,75.25,30.3,40.47,57.84,82.71,80.56,128,9.6,19.13,18.18,38.72,23.92,59.42a178.77,178.77,0,0,1,6.07,39.19c2.41,49.59-7,97.23-24.22,143.5-11.73,31.62-27.12,61.3-48.06,87.91-11.53,14.65-24.55,27.78-40,38.4-13,9-27.1,15.57-42.67,18.71-20.91,4.21-41,1.2-60.39-7.16-3.8-1.64-7.5-3.51-11.47-5.37-.72,1.45-1.44,2.84-2.11,4.26-14.43,30.78-32.84,58.83-57.14,82.79-17.25,17-36.76,30.62-59.73,38.92-23.92,8.64-48.31,10-73.11,4.87a13.31,13.31,0,0,0-9.93,1.34c-37.86,20.86-77.91,35.83-120.42,44A382.13,382.13,0,0,1,438,936.82c-79.68-3.61-152.45-29.12-220.47-69.62a444,444,0,0,1-45.89-31.3,8.15,8.15,0,0,0-5.66-2c-39.24,1.6-70.49-14.79-96.33-43.08-17.77-19.47-30.43-42.14-40.4-66.38-10.6-25.79-17.57-52.61-22.3-80.07C.61,607.87-1.06,571,.6,534.1c1.73-38.51,6.47-76.66,17-113.88,7.49-26.43,18.1-51.48,33.88-74.13,20.71-29.73,47.61-51.38,82.35-62.72C134.29,283.22,134.71,283,135.56,282.62ZM800.23,414.73c-1.59-.57-2.73-3.37-4.92-1l-11.44,8.58c-7.43,3.26-14.65,7.14-22.33,9.65-21.7,7.1-44.13,8-66.78,7.18-19.75-.73-37.94-6.44-55.3-15.43a255.4,255.4,0,0,1-34.86-21.86c-17.06-12.66-33.89-25.64-50.83-38.45-20.91-15.82-42.41-30.71-65.69-42.92-40-21-82.34-30.56-127.5-27.54-4.1.28-5.95,1.69-7.49,5.56a185.66,185.66,0,0,1-46.11,68,98.65,98.65,0,0,1-28.07,18.91c-23.52,10.19-46.29,6-64.11-12.37a111.76,111.76,0,0,1-13.94-18.19c-8.67-13.74-14-28.95-18.3-44.56-.91-3.34-1.75-6.69-2.63-10.05a104.71,104.71,0,0,0-37.16,4.67c-28.2,8.62-50.41,25.64-68.07,48.92C58.57,375.14,48,399.14,40.6,424.64,29.23,464,24.82,504.45,23.47,545.26A482.3,482.3,0,0,0,27,620.84c3.33,26.68,8.78,52.89,17.54,78.34,3.67,10.68,7.41,21.38,13.23,31.18a4.76,4.76,0,0,0,.21,1.39C68,751.94,80.36,770.49,97.33,785.61c12.36,11,26.38,19,42.62,22.83,1.48.34,3,.49,4.83.78-.4-1.54-.58-2.48-.88-3.38A687.83,687.83,0,0,1,116,691.53c-4.93-32.5-7.29-65.1-3.45-97.91,2-17.2,5.78-34,12.5-50,12.71-30.34,33.67-52.43,64.75-64.24,16.95-6.44,34.64-8.58,52.67-8.57h4.76c-.48-5.35-1-10.1-1.33-14.88a135.07,135.07,0,0,1,4.55-42.2q1.48-3.83,3-7.67l1.24,0c-.36,2.23-.73,4.46-1.09,6.7-.28,1.24-.65,2.47-.82,3.73A116,116,0,0,0,254,454.21c1.12,5.75,2.73,11.41,4.11,17.1,2.28.34,4,.67,5.73.84a206.74,206.74,0,0,1,54.31,13c30.9,12,57.32,30.69,80.75,53.87,21.81,21.57,40.14,45.93,56.92,71.52,18.68,28.48,35.14,58.26,51.74,88,14.74,26.35,29.39,52.75,46.24,77.85,12.32,18.35,25.66,35.88,41.84,51.07,14.87,14,31.59,24.81,51.23,30.93C666,864.3,685.23,866.62,705,863c21.11-3.82,39.45-13.44,56-26.73,17-13.63,30.88-30.06,43-48a258.09,258.09,0,0,0,22-39.21c2.65-6,3.58-12-.8-18.06-2.57-3.57-4.26-7.85-5.9-12-5.14-12.93-6.84-26.55-7.43-40.31A300.5,300.5,0,0,1,813.49,638c2.07-22.27,5.69-44.31,9.37-66.35,3.36-20.15,7-40.24,10.11-60.43,2.77-18.14,5-36.36,7.28-54.56.79-6.31,1-12.69,1.42-19.29L829.15,431l-28.86-16.25ZM202.7,328.39l2.76,7.29,1.1-.38a28.65,28.65,0,0,0-2.71-9.11c-1.18-4.63-2.43-9.24-3.52-13.89-1.75-7.47-3.17-15-2.86-22.72.26-6.49,3.23-11.46,8.76-14.44A69.36,69.36,0,0,1,221.17,269c18.76-4.93,38.05-6.33,57.31-7.66a368,368,0,0,1,48.35-.13c1.11.07,2.23.1,3.35.09,1,0,1.93-.08,2.89-.12-11.91-3.91-24.09-5.12-36.33-5.59a314.57,314.57,0,0,0-58.75,2.9c-11.68,1.74-23.3,3.87-34.27,8.45a74.53,74.53,0,0,0-10.47,5.66,6.52,6.52,0,0,0-3.2,7.37c.51,2.49.67,5.06,1.12,7.57C193.69,301.52,197.13,315.26,202.7,328.39Zm822.06,60.43c-.81-1.73-1.55-3.49-2.44-5.18-31.81-60.51-70.62-116.2-115.47-167.72A320.44,320.44,0,0,0,873,182c-1.75-1.49-3.57-2.88-6.16-5-.8,7.78-1.93,14.4-2.08,21-.43,19.32-.85,38.66-.59,58,.54,39,1.69,78,2.28,116.94A794.27,794.27,0,0,1,855.8,517.15q-8.49,50.52-16.55,101.12c-1.59,10.07-2.18,20.3-3.23,30.45a189.47,189.47,0,0,0-.09,38.76c1,8.92,2.71,17.66,6.43,25.92,4,8.9,9.94,16.08,18.82,20.31a180.31,180.31,0,0,0,20.3,8.4,66.19,66.19,0,0,0,26,3c13.86-1,26.44-5.67,38.2-12.85,13.23-8.09,24.41-18.53,34.46-30.23,18.51-21.53,32.35-45.91,43.47-71.89,16.93-39.54,27.21-80.73,29.62-123.74,1.1-19.53.11-39-4.61-58.08-4.24-17.12-11.17-33.26-18.65-49.18-1.21-2.57-2.67-5-4-7.52-.22-.61-.44-1.22-.65-1.83ZM472.5,684.21a10.58,10.58,0,0,0-.65-1.79c-16-28.23-32.37-56.17-51.5-82.42-16.82-23.08-35.4-44.55-57.87-62.36-41-32.5-87.39-47.73-139.72-42.25C187.93,499,162.67,517,148.05,549.2c-8.3,18.27-12.11,37.68-13.17,57.53-.76,14.34-.32,28.75,0,43.12.11,5.71,1.2,11.41,1.84,17.11.35,4.12.52,8.27,1.09,12.36a607.19,607.19,0,0,0,17,82c8.18,28.93,4.05,20,20.68,45.84a32.81,32.81,0,0,0,7.08,7.66,441.86,441.86,0,0,0,59.82,39.73c57.88,32.33,119.28,53.53,185.8,58.39A360.13,360.13,0,0,0,498,911.35a366.13,366.13,0,0,0,94.72-24.65c9.58-3.92,19-8.27,29-12.65-1.3-.87-1.91-1.38-2.59-1.72-19.61-9.72-36.08-23.49-50.86-39.44-14.93-16.12-27.68-33.89-39.56-52.31-17.08-26.47-32.13-54.11-47.56-81.53C478.34,694.06,475.39,689.15,472.5,684.21Zm369-388.16c0-2.65,0-4.21,0-5.78-.27-23.33-.72-46.66-.76-70,0-16,.79-31.91,3.59-47.71a10,10,0,0,0-.82-6,111.59,111.59,0,0,0-8.4-13.88c-7.89-10.73-17.36-20-27.29-28.86C778.65,98,746,77.5,710.77,61.18c-47.61-22-97.6-34.79-150-37.54A391.58,391.58,0,0,0,467.26,30c-42.49,8-82.72,22.43-121.11,42.19A29.26,29.26,0,0,0,343.48,74c9.93-.38,19.19-.83,28.45-1.09,48.28-1.33,96.5-.46,144.63,3.95a747.92,747.92,0,0,1,96,14.68c28.53,6.42,56.49,14.7,83.22,26.73,14.88,6.69,29.63,13.82,41.91,24.75,39.31,35,67.66,76.7,77.3,129.5a7.28,7.28,0,0,0,2.08,4.08C824.86,283,832.77,289.15,841.45,296.05ZM390,269.38l-103.82-181a29.79,29.79,0,0,0-3.08.3C260,93.35,237,98.76,214.86,107.11c-10.31,3.89-20.36,8.39-29.27,15-2.11,1.57-4,3.41-6,5.08,21.23,39.28,42.15,78,63.2,117,2.19-.16,4.24-.26,6.28-.47,22.8-2.27,45.59-2.56,68.36.25,9.53,1.17,18.93,2.91,27.79,6.78,7.9,3.44,13.93,8.47,14.57,17.87a2,2,0,0,0,.33.74Zm188,82.35c-24.88-45.56-50.65-90.65-76.26-135.82q-38.6-68.08-77.18-135.84H366.72c1,1.93,1.78,3.45,2.59,5q52.38,98,104.65,196a28.5,28.5,0,0,0,14.2,13.63C520.59,309.55,549.23,330.4,578,351.73ZM553.64,90.39l202.74,319c11.86-4.43,22.27-9.95,29.5-20.44-.92-1.46-1.74-2.81-2.59-4.15Q710.72,270.6,638.14,156.38c-11.47-18.06-23-36.08-34.39-54.19-1.66-2.64-3.46-4.17-6.69-4.45-4-.34-7.87-1.3-11.8-2ZM432.36,79.84c1.13,2.16,1.87,3.69,2.71,5.16q41.07,71.43,82.16,142.84Q556.4,295.93,595.59,364a16.55,16.55,0,0,0,4.1,5.16c11.62,8.46,23.36,16.74,35.09,25.05,1.07.76,2.3,1.31,4.39,2.48-1.28-2.27-2-3.52-2.67-4.74L457.62,85.38A11.25,11.25,0,0,0,456.1,83a5.18,5.18,0,0,0-2.65-1.66C446.67,80.73,439.87,80.34,432.36,79.84Z"/><path class="cls-2" d="M253.62,412.79c.36-2.24.73-4.47,1.09-6.7l2.47-7.33a9.35,9.35,0,0,0-2.68,3.76,34.91,34.91,0,0,0-1,3.53q-1.5,3.84-3,7.67c-9.57,1.48-19.21,2.6-28.69,4.5a192.17,192.17,0,0,0-40.39,13c-15,6.65-28.72,15.26-40.56,26.68-10.2,9.83-17.89,21.56-24.61,33.92a214.1,214.1,0,0,0-17.5,43.38,236.33,236.33,0,0,0-7.35,33c-1.07,7.71-2.15,15.42-2.87,23.16-.83,9-1.48,18.07-1.81,27.12-.3,8,0,16,0,24,0,1.28,0,2.56.1,3.83.89,10,1.78,19.94,2.73,29.9.65,6.8,1.19,13.62,2.16,20.38,1.62,11.35,3.06,22.71,2.6,34.21a40.87,40.87,0,0,1-1.36,8.92c-1.4,5.22-4.5,6.63-9.79,5.22-8.41-2.24-15.18-7.2-21.76-12.57a23.16,23.16,0,0,0-3.58-2c-5.82-9.8-9.56-20.5-13.23-31.18C35.78,673.73,30.33,647.52,27,620.84a482.3,482.3,0,0,1-3.53-75.58C24.82,504.45,29.23,464,40.6,424.64c7.37-25.5,18-49.5,34.1-70.78,17.66-23.28,39.87-40.3,68.07-48.92a104.71,104.71,0,0,1,37.16-4.67c.88,3.36,1.72,6.71,2.63,10.05,4.26,15.61,9.63,30.82,18.3,44.56a111.76,111.76,0,0,0,13.94,18.19c17.82,18.39,40.59,22.56,64.11,12.37A98.65,98.65,0,0,0,307,366.53a185.66,185.66,0,0,0,46.11-68c1.54-3.87,3.39-5.28,7.49-5.56,45.16-3,87.52,6.56,127.5,27.54,23.28,12.21,44.78,27.1,65.69,42.92,16.94,12.81,33.77,25.79,50.83,38.45a255.4,255.4,0,0,0,34.86,21.86c17.36,9,35.55,14.7,55.3,15.43,22.65.84,45.08-.08,66.78-7.18,7.68-2.51,14.9-6.39,22.33-9.65,12.21,7.25,24.39,14.53,36.63,21.71,3.36,2,7,3.54,4.79,8.58-.18.4,0,1-.06,1.43-.71,6.79-1.34,13.6-2.18,20.38-1.1,8.83-2.4,17.62-3.54,26.44-1.08,8.35-1.94,16.73-3.13,25.06-1.39,9.75-3,19.46-4.55,29.18-2,12.72-3.81,25.46-6,38.13-2.63,15-5.54,30-8.46,45C795.7,646.59,794,655,792,663.35c-3.81,15.56-13.39,27.57-25.36,37.44-20.45,16.89-44.61,24.13-70.86,24.58-6.95.12-13.92-1.16-20.89-1.67-9.8-.72-18.58-4.53-26.91-9.28-18.12-10.31-34.07-23.56-48.87-38.13-11.94-11.76-23.47-23.95-35.12-36-4.09-4.24-8.11-8.58-12-13-9.28-10.71-18.46-21.51-27.66-32.3-7.55-8.85-15.12-17.67-22.58-26.6-8.78-10.51-17.34-21.21-26.18-31.66q-13-15.33-26.32-30.33c-8.68-9.77-17.35-19.56-26.41-29a238.7,238.7,0,0,0-17.74-16,169.09,169.09,0,0,0-27.91-19.25c-19-10.39-38.84-18.41-60.08-23.06a271.48,271.48,0,0,0-53-6.2C260.65,412.79,257.13,412.81,253.62,412.79Zm201.22-58.86a6.62,6.62,0,1,0-6.7,6.62A6.7,6.7,0,0,0,454.84,353.93ZM162.41,318.65a6.52,6.52,0,0,0-6.6-6.62,6.67,6.67,0,0,0-6.61,6.68,6.83,6.83,0,0,0,6.43,6.47A6.68,6.68,0,0,0,162.41,318.65Zm245.21-3.31a6.67,6.67,0,0,0-6.32-6.6,6.5,6.5,0,0,0-6.82,6.49,6.4,6.4,0,0,0,6.23,6.56A6.61,6.61,0,0,0,407.62,315.34Zm-246.43,40.6a6.48,6.48,0,1,0,6.88-5.82A6.31,6.31,0,0,0,161.19,355.94Zm-41.48-15.05a6.11,6.11,0,0,0,6.07-6.08,6,6,0,0,0-5.91-5.7,5.9,5.9,0,0,0-6,6A6.05,6.05,0,0,0,119.71,340.89Zm21,38.11a6.14,6.14,0,0,0,5.79,5.88,6.25,6.25,0,0,0,6.15-6.05,6.07,6.07,0,0,0-6.31-5.81A6,6,0,0,0,140.72,379Zm234-43.37a6.07,6.07,0,0,0-5.94,5.71,6.24,6.24,0,0,0,6,6.15,6.11,6.11,0,0,0,5.89-6.24A5.92,5.92,0,0,0,374.74,335.63ZM128.93,364.31a5.87,5.87,0,1,0-11.73.34,5.87,5.87,0,1,0,11.73-.34ZM380.53,388a5.93,5.93,0,0,0,6.14-5.92,6,6,0,0,0-11.94.15A5.88,5.88,0,0,0,380.53,388Zm42.78-1.27a5.81,5.81,0,0,0-6.17-5.81,5.66,5.66,0,0,0-5.57,5.88,5.76,5.76,0,0,0,5.63,5.86A5.93,5.93,0,0,0,423.31,386.75Z"/><path class="cls-2" d="M136.67,667c-.64-5.7-1.73-11.4-1.84-17.11-.27-14.37-.71-28.78,0-43.12,1.06-19.85,4.87-39.26,13.17-57.53C162.67,517,187.93,499,222.76,495.39c52.33-5.48,98.73,9.75,139.72,42.25,22.47,17.81,41,39.28,57.87,62.36,19.13,26.25,35.54,54.19,51.5,82.42a10.58,10.58,0,0,1,.65,1.79c-1.07,1.35-2.26,2.64-3.2,4.08-9.49,14.45-20.09,28-32.76,39.81-4.08,3.8-8.4,7.33-12.71,10.87-13.61,11.18-29.06,19-45.63,24.71-18.36,6.28-37.48,8.75-56.73,9.64-16.56.77-33.15.4-49.55-2.72a150.25,150.25,0,0,1-55.19-21.94,231.69,231.69,0,0,1-46.39-40.4,451.84,451.84,0,0,1-29.18-36.61A45.05,45.05,0,0,0,136.67,667Z"/><path class="cls-3" d="M253.62,412.79c3.51,0,7,0,10.55.06a271.48,271.48,0,0,1,53,6.2c21.24,4.65,41.11,12.67,60.08,23.06a169.09,169.09,0,0,1,27.91,19.25,238.7,238.7,0,0,1,17.74,16c9.06,9.41,17.73,19.2,26.41,29q13.32,15,26.32,30.33c8.84,10.45,17.4,21.15,26.18,31.66,7.46,8.93,15,17.75,22.58,26.6,9.2,10.79,18.38,21.59,27.66,32.3,3.86,4.46,7.88,8.8,12,13,11.65,12.06,23.18,24.25,35.12,36,14.8,14.57,30.75,27.82,48.87,38.13,8.33,4.75,17.11,8.56,26.91,9.28,7,.51,13.94,1.79,20.89,1.67,26.25-.45,50.41-7.69,70.86-24.58,12-9.87,21.55-21.88,25.36-37.44,2-8.33,3.71-16.76,5.35-25.18,2.92-15,5.83-29.94,8.46-45,2.22-12.67,4-25.41,6-38.13,1.53-9.72,3.16-19.43,4.55-29.18,1.19-8.33,2-16.71,3.13-25.06,1.14-8.82,2.44-17.61,3.54-26.44.84-6.78,1.47-13.59,2.18-20.38,0-.48-.12-1,.06-1.43,2.26-5-1.43-6.61-4.79-8.58-12.24-7.18-24.42-14.46-36.63-21.71l11.44-8.58,4.92,1,.06,0c.39.65.61,1.56,1.18,1.91,7.87,4.83,15.8,9.56,23.68,14.37a3.54,3.54,0,0,0,4,0l12.52,6.36c-.47,6.6-.63,13-1.42,19.29-2.27,18.2-4.51,36.42-7.28,54.56-3.08,20.19-6.75,40.28-10.11,60.43-3.68,22-7.3,44.08-9.37,66.35A300.5,300.5,0,0,0,812,678.68c.59,13.76,2.29,27.38,7.43,40.31,1.64,4.14,3.33,8.42,5.9,12,4.38,6.06,3.45,12.07.8,18.06a258.09,258.09,0,0,1-22,39.21c-12.13,18-26,34.42-43,48-16.58,13.29-34.92,22.91-56,26.73-19.81,3.59-39.09,1.27-58.15-4.66-19.64-6.12-36.36-17-51.23-30.93-16.18-15.19-29.52-32.72-41.84-51.07-16.85-25.1-31.5-51.5-46.24-77.85-16.6-29.7-33.06-59.48-51.74-88C439.06,585,420.73,560.61,398.92,539c-23.43-23.18-49.85-41.91-80.75-53.87a206.74,206.74,0,0,0-54.31-13c-1.73-.17-3.45-.5-5.73-.84-1.38-5.69-3-11.35-4.11-17.1a116,116,0,0,1-1.22-37.69C253,415.26,253.34,414,253.62,412.79Z"/><path class="cls-3" d="M136.67,667a45.05,45.05,0,0,1,4.49,4.69,451.84,451.84,0,0,0,29.18,36.61,231.69,231.69,0,0,0,46.39,40.4,150.25,150.25,0,0,0,55.19,21.94c16.4,3.12,33,3.49,49.55,2.72,19.25-.89,38.37-3.36,56.73-9.64,16.57-5.67,32-13.53,45.63-24.71,4.31-3.54,8.63-7.07,12.71-10.87,12.67-11.82,23.27-25.36,32.76-39.81.94-1.44,2.13-2.73,3.2-4.08,2.89,4.94,5.84,9.85,8.65,14.84,15.43,27.42,30.48,55.06,47.56,81.53,11.88,18.42,24.63,36.19,39.56,52.31,14.78,16,31.25,29.72,50.86,39.44.68.34,1.29.85,2.59,1.72-10,4.38-19.41,8.73-29,12.65A366.13,366.13,0,0,1,498,911.35a360.13,360.13,0,0,1-69.87,1.56c-66.52-4.86-127.92-26.06-185.8-58.39a441.86,441.86,0,0,1-59.82-39.73,32.81,32.81,0,0,1-7.08-7.66c-16.63-25.81-12.5-16.91-20.68-45.84a607.19,607.19,0,0,1-17-82C137.19,675.23,137,671.08,136.67,667Z"/><path class="cls-4" d="M836,648.72c1.05-10.15,1.64-20.38,3.23-30.45q8-50.61,16.55-101.12A794.27,794.27,0,0,0,866.45,373c-.59-39-1.74-78-2.28-116.94-.26-19.32.16-38.66.59-58,.15-6.64,1.28-13.26,2.08-21,2.59,2.08,4.41,3.47,6.16,5a320.44,320.44,0,0,1,33.85,33.89c44.85,51.52,83.66,107.21,115.47,167.72.89,1.69,1.63,3.45,2.44,5.18l.54,1c.21.61.43,1.22.65,1.83-2.09,2.86-1.44,6.35-2,9.52-1.41,7.33-2.12,14.78-3.52,22.11a427,427,0,0,1-10.81,43.53,352.44,352.44,0,0,1-17.26,46.08c-5.22,11.28-11,22.32-17,33.21a261.9,261.9,0,0,1-35.82,50.07c-13.45,14.81-28.35,28-46,37.85C875.58,644.06,856.82,650.24,836,648.72Z"/><path class="cls-3" d="M836,648.72c20.8,1.52,39.56-4.66,57.48-14.7,17.64-9.88,32.54-23,46-37.85a261.9,261.9,0,0,0,35.82-50.07c6-10.89,11.79-21.93,17-33.21a352.44,352.44,0,0,0,17.26-46.08,427,427,0,0,0,10.81-43.53c1.4-7.33,2.11-14.78,3.52-22.11.6-3.17,0-6.66,2-9.52,1.35,2.5,2.81,5,4,7.52,7.48,15.92,14.41,32.06,18.65,49.18,4.72,19.09,5.71,38.55,4.61,58.08-2.41,43-12.69,84.2-29.62,123.74-11.12,26-25,50.36-43.47,71.89-10,11.7-21.23,22.14-34.46,30.23-11.76,7.18-24.34,11.85-38.2,12.85a66.19,66.19,0,0,1-26-3,180.31,180.31,0,0,1-20.3-8.4c-8.88-4.23-14.82-11.41-18.82-20.31-3.72-8.26-5.47-17-6.43-25.92A189.47,189.47,0,0,1,836,648.72Z"/><path class="cls-5" d="M841.45,296.05c-8.68-6.9-16.59-13.09-24.35-19.46a7.28,7.28,0,0,1-2.08-4.08c-9.64-52.8-38-94.48-77.3-129.5-12.28-10.93-27-18.06-41.91-24.75-26.73-12-54.69-20.31-83.22-26.73a747.92,747.92,0,0,0-96-14.68c-48.13-4.41-96.35-5.28-144.63-3.95-9.26.26-18.52.71-28.45,1.09a29.26,29.26,0,0,1,2.67-1.85C384.54,52.38,424.77,38,467.26,30a391.58,391.58,0,0,1,93.5-6.31c52.41,2.75,102.4,15.51,150,37.54C746,77.5,778.65,98,807.77,123.87c9.93,8.82,19.4,18.13,27.29,28.86a111.59,111.59,0,0,1,8.4,13.88,10,10,0,0,1,.82,6c-2.8,15.8-3.62,31.74-3.59,47.71,0,23.33.49,46.66.76,70C841.47,291.84,841.45,293.4,841.45,296.05Z"/><path class="cls-6" d="M390,269.38H360.15a2,2,0,0,1-.33-.74c-.64-9.4-6.67-14.43-14.57-17.87-8.86-3.87-18.26-5.61-27.79-6.78-22.77-2.81-45.56-2.52-68.36-.25-2,.21-4.09.31-6.28.47-21-39-42-77.69-63.2-117,1.95-1.67,3.86-3.51,6-5.08,8.91-6.66,19-11.16,29.27-15C237,98.76,260,93.35,283.13,88.64a29.79,29.79,0,0,1,3.08-.3Z"/><path class="cls-7" d="M57.77,730.36a23.16,23.16,0,0,1,3.58,2c6.58,5.37,13.35,10.33,21.76,12.57,5.29,1.41,8.39,0,9.79-5.22a40.87,40.87,0,0,0,1.36-8.92c.46-11.5-1-22.86-2.6-34.21-1-6.76-1.51-13.58-2.16-20.38-1-10-1.84-19.93-2.73-29.9-.11-1.27-.1-2.55-.1-3.83,0-8-.26-16,0-24,.33-9,1-18.1,1.81-27.12.72-7.74,1.8-15.45,2.87-23.16a236.33,236.33,0,0,1,7.35-33,214.1,214.1,0,0,1,17.5-43.38c6.72-12.36,14.41-24.09,24.61-33.92,11.84-11.42,25.59-20,40.56-26.68a192.17,192.17,0,0,1,40.39-13c9.48-1.9,19.12-3,28.69-4.5a135.07,135.07,0,0,0-4.55,42.2c.29,4.78.85,9.53,1.33,14.88h-4.76c-18,0-35.72,2.13-52.67,8.57-31.08,11.81-52,33.9-64.75,64.24-6.72,16-10.49,32.81-12.5,50-3.84,32.81-1.48,65.41,3.45,97.91A687.83,687.83,0,0,0,143.9,805.84c.3.9.48,1.84.88,3.38-1.83-.29-3.35-.44-4.83-.78-16.24-3.81-30.26-11.82-42.62-22.83C80.36,770.49,68,751.94,58,731.75A4.76,4.76,0,0,1,57.77,730.36Z"/><path class="cls-5" d="M578,351.73c-28.77-21.33-57.41-42.18-89.84-57A28.5,28.5,0,0,1,474,281.07Q421.88,182.93,369.31,85c-.81-1.52-1.59-3-2.59-5h57.84Q463,147.72,501.74,215.91C527.35,261.08,553.12,306.17,578,351.73Z"/><path class="cls-8" d="M553.64,90.39l31.62,5.38c3.93.67,7.84,1.63,11.8,2,3.23.28,5,1.81,6.69,4.45,11.38,18.11,22.92,36.13,34.39,54.19q72.58,114.21,145.15,228.43c.85,1.34,1.67,2.69,2.59,4.15-7.23,10.49-17.64,16-29.5,20.44Z"/><path class="cls-9" d="M432.36,79.84c7.51.5,14.31.89,21.09,1.46A5.18,5.18,0,0,1,456.1,83a11.25,11.25,0,0,1,1.52,2.42L636.5,392c.71,1.22,1.39,2.47,2.67,4.74-2.09-1.17-3.32-1.72-4.39-2.48-11.73-8.31-23.47-16.59-35.09-25.05a16.55,16.55,0,0,1-4.1-5.16Q556.37,296,517.23,227.84,476.15,156.42,435.07,85C434.23,83.53,433.49,82,432.36,79.84Z"/><path class="cls-10" d="M202.7,328.39c-5.57-13.13-9-26.87-11.53-40.86-.45-2.51-.61-5.08-1.12-7.57a6.52,6.52,0,0,1,3.2-7.37,74.53,74.53,0,0,1,10.47-5.66c11-4.58,22.59-6.71,34.27-8.45a314.57,314.57,0,0,1,58.75-2.9c12.24.47,24.42,1.68,36.33,5.59-1,0-1.93.12-2.89.12-1.12,0-2.24,0-3.35-.09a368,368,0,0,0-48.35.13c-19.26,1.33-38.55,2.73-57.31,7.66a69.36,69.36,0,0,0-14.94,6.15c-5.53,3-8.5,7.95-8.76,14.44-.31,7.75,1.11,15.25,2.86,22.72,1.09,4.65,2.34,9.26,3.52,13.89C203.47,326.92,203.09,327.66,202.7,328.39Z"/><path class="cls-11" d="M829.15,431a3.54,3.54,0,0,1-4,0c-7.88-4.81-15.81-9.54-23.68-14.37-.57-.35-.79-1.26-1.18-1.91Z"/><path class="cls-12" d="M202.7,328.39c.39-.73.77-1.47,1.15-2.2a28.65,28.65,0,0,1,2.71,9.11l-1.1.38Z"/><path class="cls-13" d="M253.47,406.05a34.91,34.91,0,0,1,1-3.53,9.35,9.35,0,0,1,2.68-3.76l-2.47,7.33Z"/><path class="cls-11" d="M800.23,414.73l-4.92-1C797.5,411.36,798.64,414.16,800.23,414.73Z"/><path class="cls-14" d="M454.84,353.93a6.7,6.7,0,0,1-6.7,6.62,6.63,6.63,0,0,1-6.53-6.28,6.62,6.62,0,1,1,13.23-.34Z"/><path class="cls-15" d="M162.41,318.65a6.68,6.68,0,0,1-6.78,6.53,6.83,6.83,0,0,1-6.43-6.47,6.67,6.67,0,0,1,6.61-6.68A6.52,6.52,0,0,1,162.41,318.65Z"/><path class="cls-16" d="M407.62,315.34a6.61,6.61,0,0,1-6.91,6.45,6.4,6.4,0,0,1-6.23-6.56,6.5,6.5,0,0,1,6.82-6.49A6.67,6.67,0,0,1,407.62,315.34Z"/><path class="cls-17" d="M161.19,355.94a6.48,6.48,0,1,1,6,7.13A6.33,6.33,0,0,1,161.19,355.94Z"/><path class="cls-18" d="M119.71,340.89a6.05,6.05,0,0,1-5.88-5.76,5.9,5.9,0,0,1,6-6,6,6,0,0,1,5.91,5.7A6.11,6.11,0,0,1,119.71,340.89Z"/><path class="cls-15" d="M140.72,379a6,6,0,0,1,5.63-6,6.07,6.07,0,0,1,6.31,5.81,6.25,6.25,0,0,1-6.15,6.05A6.14,6.14,0,0,1,140.72,379Z"/><path class="cls-19" d="M374.74,335.63a5.92,5.92,0,0,1,6,5.62,6.11,6.11,0,0,1-5.89,6.24,6.24,6.24,0,0,1-6-6.15A6.07,6.07,0,0,1,374.74,335.63Z"/><path class="cls-14" d="M128.93,364.31a5.87,5.87,0,1,1-11.73.34,5.87,5.87,0,1,1,11.73-.34Z"/><path class="cls-20" d="M380.53,388a5.88,5.88,0,0,1-5.8-5.77,6,6,0,1,1,5.8,5.77Z"/><path class="cls-21" d="M423.31,386.75a5.93,5.93,0,0,1-6.11,5.93,5.76,5.76,0,0,1-5.63-5.86,5.66,5.66,0,0,1,5.57-5.88A5.81,5.81,0,0,1,423.31,386.75Z"/></g></g></svg>